<svg width="300" height="300" viewBox="0 0 300 300" fill="none" xmlns="http://www.w3.org/2000/svg">
<rect width="300" height="300" rx="71" fill="#F3F3F3"/>
<rect x="182.789" y="52" width="65.0163" height="195.049" rx="32.5082" fill="url(#paint0_linear_9669_67464)"/>
<path d="M215.117 52C226.49 52.0001 236.497 57.8417 242.306 66.6865C242.348 66.7488 242.389 66.8115 242.429 66.874C242.473 66.9414 242.517 67.0085 242.56 67.0762C246.435 73.0965 248.124 80.115 247.626 87.0059V176.506C247.626 158.552 233.07 143.998 215.117 143.998C207.16 143.998 199.872 146.858 194.221 151.604L173.298 172.529C173.273 172.554 173.249 172.581 173.224 172.605C173.2 172.63 173.173 172.654 173.148 172.679L172.248 173.58L172.226 173.559C159.473 185.29 139.619 184.974 127.251 172.605L62.5213 107.875C49.8263 95.1798 49.8262 74.5975 62.5213 61.9023C75.2165 49.2075 95.7997 49.2074 108.495 61.9023L150.233 103.641L189.984 63.8896C195.946 56.6309 204.991 52.0001 215.117 52Z" fill="url(#paint1_linear_9669_67464)"/>
<path d="M81.4548 52.5672C83.6412 52.2898 85.8501 52.2335 88.0456 52.4002C88.0935 52.4038 88.1413 52.4081 88.1891 52.4119C88.4064 52.4294 88.6236 52.4487 88.8405 52.4705C88.9351 52.4799 89.0294 52.4906 89.1237 52.5008C89.269 52.5167 89.4142 52.5328 89.5593 52.5506C89.7306 52.5715 89.9014 52.5944 90.072 52.618C90.1586 52.63 90.2452 52.6424 90.3317 52.6551C90.4972 52.6793 90.6622 52.7055 90.8268 52.7322C90.9235 52.748 91.0203 52.7635 91.1169 52.7801C91.3112 52.8134 91.5048 52.8488 91.6979 52.8856C91.7418 52.8939 91.7859 52.9014 91.8298 52.91C92.0621 52.9552 92.2935 53.0034 92.5241 53.0535C92.5368 53.0563 92.5495 53.0595 92.5622 53.0623C92.8087 53.1163 93.0541 53.1727 93.2985 53.2322C93.3056 53.234 93.3129 53.2354 93.32 53.2371C93.5643 53.2968 93.8074 53.3595 94.0495 53.4246C94.0632 53.4283 94.0768 53.4326 94.0905 53.4363C94.3276 53.5005 94.5636 53.5672 94.7985 53.6365C94.8184 53.6424 94.8382 53.6482 94.8581 53.6541C95.3408 53.7976 95.8187 53.952 96.2917 54.117C96.3183 54.1263 96.3451 54.135 96.3718 54.1444C96.5821 54.2184 96.7913 54.2947 96.9997 54.3729C97.0561 54.394 97.1123 54.4158 97.1686 54.4373C97.3484 54.5059 97.5275 54.5756 97.7057 54.6473C97.7833 54.6785 97.8608 54.7102 97.9382 54.742C98.1088 54.8122 98.2787 54.8838 98.4479 54.9569C98.5207 54.9882 98.5931 55.0206 98.6657 55.0526C98.8225 55.1216 98.979 55.1911 99.1345 55.2625C99.2379 55.31 99.341 55.3584 99.444 55.4071C99.5694 55.4663 99.6945 55.526 99.819 55.5867C99.9444 55.6479 100.069 55.7104 100.194 55.7733C100.299 55.8264 100.405 55.8792 100.509 55.9334C100.646 56.0039 100.781 56.0757 100.917 56.1483C101.018 56.2027 101.119 56.2578 101.22 56.3133C101.332 56.3745 101.443 56.4363 101.553 56.4988C101.684 56.5726 101.814 56.647 101.943 56.7225C102.044 56.7815 102.145 56.841 102.246 56.9012C102.377 56.9799 102.508 57.0599 102.638 57.1404C102.726 57.1943 102.812 57.2488 102.899 57.3035C103.035 57.3896 103.171 57.4763 103.306 57.5643C103.396 57.6225 103.485 57.6808 103.574 57.7401C103.724 57.8398 103.872 57.9416 104.02 58.0438C104.082 58.0868 104.145 58.1301 104.207 58.1737C104.363 58.2832 104.518 58.3944 104.673 58.5067C104.732 58.5497 104.791 58.5921 104.85 58.6356C106.297 59.7023 107.652 60.8858 108.902 62.1727L150.33 103.6L150.326 103.603C132.541 107.953 119.157 123.513 118.088 142.371V147.302C118.102 147.557 118.119 147.812 118.138 148.066L118.088 148.117V214.849C118.087 232.803 103.533 247.357 85.5798 247.357C67.6261 247.357 53.0721 232.803 53.072 214.849V85.6199C52.8602 77.0336 56.0309 68.3797 62.5837 61.827C67.0441 57.3666 72.4783 54.4743 78.2018 53.1483C78.2249 53.1429 78.2481 53.1379 78.2712 53.1326C78.5119 53.0774 78.7531 53.0251 78.9948 52.9754C79.0137 52.9715 79.0326 52.9675 79.0514 52.9637C79.8315 52.8048 80.6162 52.6743 81.404 52.5731C81.4209 52.5709 81.4379 52.5693 81.4548 52.5672Z" fill="url(#paint2_linear_9669_67464)"/>
<defs>
<linearGradient id="paint0_linear_9669_67464" x1="215.297" y1="247.049" x2="215.297" y2="131.97" gradientUnits="userSpaceOnUse">
<stop stop-color="#AB5CE9"/>
<stop offset="1" stop-color="#493299"/>
</linearGradient>
<linearGradient id="paint1_linear_9669_67464" x1="62.2174" y1="97.9987" x2="150.28" y2="186.062" gradientUnits="userSpaceOnUse">
<stop stop-color="#AA5BE9"/>
<stop offset="0.538462" stop-color="#563DB0"/>
<stop offset="1" stop-color="#AA5BEA"/>
</linearGradient>
<linearGradient id="paint2_linear_9669_67464" x1="57.876" y1="107.264" x2="122.567" y2="235.671" gradientUnits="userSpaceOnUse">
<stop stop-color="#AA5BE9"/>
<stop offset="1" stop-color="#493299"/>
</linearGradient>
</defs>
</svg>
